# xmcd
#
# Track frame offsets:
#	182
#	10072
#	20525
#	32555
#	42547
#	57182
#	72270
#	87260
#	106465
#	118862
#	136437
#	148297
#	161500
#	178410
#	190800
#	212390
#	230025
# Disc length: 3371 seconds
# Revision: 5
# Processed by: cddbd v1.5.1PL2 Copyright (c) Steve Scherf et al.
#
# Submitted via: libkcddb 0.31
#
DISCID=f70d2911
DTITLE=Geraldo Azevedo - Ao Vivo
DYEAR=1997
DGENRE=MPB
TTITLE0=Abertura (Caixinha de Música) - Príncipe Brilhante
TTITLE1=Berekekê
TTITLE2=Casa Brasileira
TTITLE3=Sexo XX
TTITLE4=Ai Que Saudade D'ocê
TTITLE5=Bicho de Sete Cabeças
TTITLE6=Estrela Guia
TTITLE7=Chorando e Cantando
TTITLE8=Tanto Querer
TTITLE9=Adoro Você
TTITLE10=Caravana
TTITLE11=Arte Longa
TTITLE12=Coqueiros
TTITLE13=Nuvens Sem Guia
TTITLE14=Dia Branco
TTITLE15=Táxi Lunar
TTITLE16=Menina do Lido - Sétimo Céu
EXTD=
EXTT0=
EXTT1=
EXTT2=
EXTT3=
EXTT4=
EXTT5=
EXTT6=
EXTT7=
EXTT8=
EXTT9=
EXTT10=
EXTT11=
EXTT12=
EXTT13=
EXTT14=
EXTT15=
EXTT16=
PLAYORDER=
